<?xml version="1.0" standalone="no"?><!DOCTYPE svg PUBLIC "-//W3C//DTD SVG 1.1//EN" "http://www.w3.org/Graphics/SVG/1.1/DTD/svg11.dtd"><svg t="1700729973883" class="icon" viewBox="0 0 1024 1024" version="1.1" xmlns="http://www.w3.org/2000/svg" p-id="18280" xmlns:xlink="http://www.w3.org/1999/xlink" width="32" height="32"><path d="M160 199.3v540h704v-540z" fill="#29B6F6" p-id="18281"></path><path d="M466.75 702.6l193.4-227.7-86.2 101.5 29.1 33.9 44.7-36.4 45.75 44.7 40.55-39 45.75 44.2 16.1-29.4 93.35 108.45-16.35 18.7 16.4-18.75c9 10.45 8.9 27.3-0.15 37.65-5 5.7-11.7 8.25-18.25 7.6l-388.9 1.05v0.1c-12.75 0.05-23.15-11.85-23.15-26.55 0-8 3.05-15.15 7.9-20.05z" fill="#37474F" p-id="18282"></path><path d="M137.7 699.9l239.25-315.5-106.65 140.65 36 46.95 55.3-50.45L418.2 583.5l50.2-54 56.6 61.25 19.9-40.75 168.85 207.3c-162.85-15-385.4 6.55-557.1 7.05v0.15c-15.8 0.05-28.6-16.45-28.65-36.8 0-11.05 3.75-21 9.7-27.8z" fill="#455A64" p-id="18283"></path><path d="M270.3 525.05l106.65-140.65-0.05-0.05c11.05-14.55 29.15-14.8 40.45-0.55 0.6 0.8 1.2 1.6 1.75 2.45l125.85 163.75-19.9 40.75L468.4 529.5l-50.15 54.05-56.6-61.95L306.3 572l-36-46.95z" fill="#FFFFFE" p-id="18284"></path><path d="M154 167.3h716c7.15 0 13.65 2.9 18.35 7.65l-0.05 0.05c4.75 4.75 7.65 11.25 7.65 18.35v552c0 7.1-2.95 13.6-7.65 18.35l0.05 0.05c-4.7 4.7-11.2 7.65-18.35 7.65H154c-7.15 0-13.65-2.9-18.4-7.65-4.7-4.7-7.65-11.2-7.65-18.35v-552c0-7.15 2.9-13.65 7.65-18.4l0.05 0.05c4.75-4.85 11.25-7.75 18.35-7.75z m710 32H160v540h704v-540z" fill="#795548" p-id="18285"></path><path d="M273.85 236.65c16.15 0 30.75 6.55 41.35 17.1 10.6 10.6 17.1 25.2 17.1 41.35 0 16.15-6.55 30.75-17.1 41.35-10.6 10.6-25.2 17.1-41.35 17.1S243.1 347 232.5 336.45c-10.6-10.6-17.1-25.2-17.1-41.35s6.55-30.75 17.1-41.35c10.6-10.55 25.2-17.1 41.35-17.1z" fill="#FCCB0D" p-id="18286"></path><path d="M273.85 213.3c2.35 0 4.25 1.9 4.25 4.2v9.4c0 2.35-1.9 4.2-4.2 4.2-2.35 0-4.2-1.9-4.2-4.2V217.5c-0.1-2.35 1.8-4.2 4.15-4.2zM313.8 223.7l1.95 1.15c1.5 0.85 1.65 3.25 0.45 5.4l-4.45 7.7c-1.25 2.15-3.45 3.15-4.9 2.3l-1.95-1.15c-1.5-0.85-1.65-3.25-0.45-5.4l4.45-7.7c1.2-2.15 3.4-3.2 4.9-2.3zM344.15 253.2l1.15 1.95c0.85 1.5-0.2 3.65-2.3 4.9l-7.7 4.45c-2.15 1.25-4.55 1.05-5.4-0.45l-1.15-1.95c-0.85-1.5 0.2-3.65 2.3-4.9l7.7-4.45c2.15-1.2 4.55-1 5.4 0.45zM4.2 0h3.1C9.65 0 11.5 1.9 11.5 4.2v8.45c0 2.35-1.9 4.2-4.2 4.2H4.2C1.9 16.9 0 15 0 12.65V4.2C0 1.9 1.9 0 4.2 0zM345.3 335.05l-1.15 1.95c-0.85 1.5-3.25 1.65-5.4 0.45l-7.7-4.45c-2.15-1.25-3.15-3.45-2.3-4.9l1.15-1.95c0.85-1.5 3.25-1.65 5.4-0.45l7.7 4.45c2.1 1.25 3.15 3.45 2.3 4.9zM315.75 365.45l-1.95 1.15c-1.5 0.85-3.65-0.2-4.9-2.3l-4.45-7.7c-1.25-2.15-1.05-4.55 0.45-5.4l1.95-1.15c1.5-0.85 3.65 0.2 4.9 2.3l4.45 7.7c1.25 2.1 1.05 4.55-0.45 5.4zM273.85 359.15c2.35 0 4.25 1.9 4.25 4.2v9.4c0 2.35-1.9 4.2-4.2 4.2-2.35 0-4.2-1.9-4.2-4.2v-9.4c-0.05-2.3 1.8-4.2 4.15-4.2zM233.9 366.6l-1.95-1.15c-1.5-0.85-1.65-3.25-0.45-5.4l4.45-7.7c1.25-2.15 3.45-3.15 4.9-2.3l1.95 1.15c1.5 0.85 1.65 3.25 0.45 5.4l-4.45 7.7c-1.2 2.1-3.4 3.15-4.9 2.3zM203.55 337.05l-1.15-1.95c-0.85-1.5 0.2-3.65 2.3-4.9l7.7-4.45c2.15-1.25 4.55-1.05 5.4 0.45l1.15 1.95c0.85 1.5-0.2 3.65-2.3 4.9l-7.7 4.45c-2.15 1.2-4.55 1-5.4-0.45z" fill="#FCCB0D" p-id="18287"></path><path d="M4.2 0h3.1C9.65 0 11.5 1.9 11.5 4.2v8.45c0 2.35-1.9 4.2-4.2 4.2H4.2C1.9 16.9 0 15 0 12.65V4.2C0 1.9 1.9 0 4.2 0zM202.4 255.2l1.15-1.95c0.85-1.5 3.25-1.65 5.4-0.45l7.7 4.45c2.15 1.25 3.15 3.45 2.3 4.9l-1.15 1.95c-0.85 1.5-3.25 1.65-5.4 0.45l-7.7-4.45c-2.1-1.25-3.15-3.45-2.3-4.9zM231.95 224.8l1.95-1.15c1.5-0.85 3.65 0.2 4.9 2.3l4.45 7.7c1.25 2.15 1.05 4.55-0.45 5.4l-1.95 1.15c-1.5 0.85-3.65-0.2-4.9-2.3l-4.45-7.7c-1.25-2.1-1.05-4.55 0.45-5.4z" fill="#FCCB0D" p-id="18288"></path><path d="M570 580.9l90.1-106.05-0.05-0.05c8.9-10.5 23.55-10.7 32.7-0.4 0.5 0.55 1 1.15 1.45 1.75l101.7 118.2-16.1 29.4-45.75-44.2-40.55 39-45.75-44.7-49.3 41.8-28.45-34.75z" fill="#E0F7FA" p-id="18289"></path><path d="M712.1 252.2c5.3-13.25 21.4-22.95 40.5-22.95 23.4 0 42.35 14.5 42.35 32.4 0 6.9-2.85 13.3-7.65 18.6 10.9 3.9 18.45 12.25 18.45 21.95 0 13.45-14.5 24.3-32.4 24.3H672.5c-17.9 0-32.4-10.9-32.4-24.3 0-10.85 9.5-20.05 22.6-23.15-0.65-1.65-0.95-3.4-0.95-5.2 0-12.7 16.95-22.95 37.8-22.95 4.3 0 8.6 0.45 12.55 1.3z" fill="#FFFFFE" p-id="18290"></path><path d="M496.05 306.1c11.2-14.1 48.4-7.8 54.35 24.1 6.95-24.25-19.55-55.05-44.45-41.2v-0.05h-0.05c-0.5-28.5-40.35-36.05-57.9-17.9 30.65-10.75 54.7 18.35 48.05 35.05z" fill="#424242" p-id="18291"></path><path d="M486.1 302.4l14.3-3.8 3.85 14.3z" fill="#424242" p-id="18292"></path><path d="M601.35 823.05l198.1-198.1-67.9-67.9-198.1 198.1z" fill="#E64A19" p-id="18293"></path><path d="M556.35 777.55l197.8-197.85-22.6-22.65-197.85 197.85z" fill="#FF7043" p-id="18294"></path><path d="M556.35 777.55l197.8-197.85 22.65 22.65-197.85 197.8z" fill="#E64A19" p-id="18295"></path><path d="M601.6 822.8l197.85-197.85-22.65-22.6-197.85 197.8z" fill="#FF7043" p-id="18296"></path><path d="M779.15 645.25l20.3-20.3-67.9-67.9-20.3 20.3z" fill="#E0E0E0" p-id="18297"></path><path d="M816.25 562.9l-22.65-22.65c-12.45-12.45-32.8-12.45-45.25 0l-16.9 16.9 67.9 67.9 16.9-16.9c12.45-12.45 12.45-32.8 0-45.25z" fill="#E53935" p-id="18298"></path><path d="M601.6 822.8l-67.9-67.9-33.9 101.8z" fill="#DFB5A5" p-id="18299"></path><path d="M514.2 813.45l-14.4 43.25 43.25-14.4z" fill="#424242" p-id="18300"></path><path d="M791.3 633.1l4.1-4.15-67.85-67.85-4.15 4.1zM783.15 641.25l4.15-4.15-67.9-67.9-4.15 4.15z" fill="#757575" p-id="18301"></path></svg>