<?xml version="1.0" standalone="no"?><!DOCTYPE svg PUBLIC "-//W3C//DTD SVG 1.1//EN" "http://www.w3.org/Graphics/SVG/1.1/DTD/svg11.dtd"><svg t="1700727176359" class="icon" viewBox="0 0 1024 1024" version="1.1" xmlns="http://www.w3.org/2000/svg" p-id="24994" xmlns:xlink="http://www.w3.org/1999/xlink" width="32" height="32"><path d="M510.6688 511.7952m-424.2944 0a424.2944 424.2944 0 1 0 848.5888 0 424.2944 424.2944 0 1 0-848.5888 0Z" fill="#FF5D50" p-id="24995"></path><path d="M316.416 600.1152c-17.152 0-30.464 15.616-26.9824 32.4096 21.4528 102.5536 112.3328 179.5584 221.2352 179.5584s199.7824-77.056 221.2352-179.5584c3.5328-16.7936-9.8304-32.4096-26.9824-32.4096H316.416z" fill="#FFDF99" p-id="24996"></path><path d="M356.5056 406.016m-58.368 0a58.368 58.368 0 1 0 116.736 0 58.368 58.368 0 1 0-116.736 0Z" fill="#FFDF99" p-id="24997"></path><path d="M664.832 406.016m-58.368 0a58.368 58.368 0 1 0 116.736 0 58.368 58.368 0 1 0-116.736 0Z" fill="#FFDF99" p-id="24998"></path></svg>