<?xml version="1.0" standalone="no"?><!DOCTYPE svg PUBLIC "-//W3C//DTD SVG 1.1//EN" "http://www.w3.org/Graphics/SVG/1.1/DTD/svg11.dtd"><svg t="1700729096209" class="icon" viewBox="0 0 1024 1024" version="1.1" xmlns="http://www.w3.org/2000/svg" p-id="59604" xmlns:xlink="http://www.w3.org/1999/xlink" width="32" height="32"><path d="M512 512m-405.333333 0a405.333333 405.333333 0 1 0 810.666666 0 405.333333 405.333333 0 1 0-810.666666 0Z" fill="#F44336" p-id="59605"></path><path d="M512 512m-320 0a320 320 0 1 0 640 0 320 320 0 1 0-640 0Z" fill="#FFFFFF" p-id="59606"></path><path d="M512 512V192a320 320 0 0 0-226.346667 93.653333z" fill="#FFCDD2" p-id="59607"></path><path d="M542.72 481.493333l-211.84-184.32a56.533333 56.533333 0 0 0-45.866667-13.013333 56.32 56.32 0 0 0 13.653334 45.866667l184.32 211.84a42.666667 42.666667 0 0 0 60.16-60.373334z" fill="#37474F" p-id="59608"></path><path d="M290.346667 384m-10.666667 0a10.666667 10.666667 0 1 0 21.333333 0 10.666667 10.666667 0 1 0-21.333333 0Z" fill="#37474F" p-id="59609"></path><path d="M733.653333 640m-10.666666 0a10.666667 10.666667 0 1 0 21.333333 0 10.666667 10.666667 0 1 0-21.333333 0Z" fill="#37474F" p-id="59610"></path><path d="M640 290.346667m-10.666667 0a10.666667 10.666667 0 1 0 21.333334 0 10.666667 10.666667 0 1 0-21.333334 0Z" fill="#37474F" p-id="59611"></path><path d="M384 733.653333m-10.666667 0a10.666667 10.666667 0 1 0 21.333334 0 10.666667 10.666667 0 1 0-21.333334 0Z" fill="#37474F" p-id="59612"></path><path d="M290.346667 640m-10.666667 0a10.666667 10.666667 0 1 0 21.333333 0 10.666667 10.666667 0 1 0-21.333333 0Z" fill="#37474F" p-id="59613"></path><path d="M733.653333 384m-10.666666 0a10.666667 10.666667 0 1 0 21.333333 0 10.666667 10.666667 0 1 0-21.333333 0Z" fill="#37474F" p-id="59614"></path><path d="M384 290.346667m-10.666667 0a10.666667 10.666667 0 1 0 21.333334 0 10.666667 10.666667 0 1 0-21.333334 0Z" fill="#37474F" p-id="59615"></path><path d="M640 733.653333m-10.666667 0a10.666667 10.666667 0 1 0 21.333334 0 10.666667 10.666667 0 1 0-21.333334 0Z" fill="#37474F" p-id="59616"></path><path d="M512 768m-10.666667 0a10.666667 10.666667 0 1 0 21.333334 0 10.666667 10.666667 0 1 0-21.333334 0Z" fill="#37474F" p-id="59617"></path><path d="M256 512m-10.666667 0a10.666667 10.666667 0 1 0 21.333334 0 10.666667 10.666667 0 1 0-21.333334 0Z" fill="#37474F" p-id="59618"></path><path d="M768 512m-10.666667 0a10.666667 10.666667 0 1 0 21.333334 0 10.666667 10.666667 0 1 0-21.333334 0Z" fill="#37474F" p-id="59619"></path><path d="M512 256l44.8-67.2a315.093333 315.093333 0 0 0-89.6 0z" fill="#F44336" p-id="59620"></path><path d="M512 512m-21.333333 0a21.333333 21.333333 0 1 0 42.666666 0 21.333333 21.333333 0 1 0-42.666666 0Z" fill="#90A4AE" p-id="59621"></path></svg>