<?xml version="1.0" standalone="no"?><!DOCTYPE svg PUBLIC "-//W3C//DTD SVG 1.1//EN" "http://www.w3.org/Graphics/SVG/1.1/DTD/svg11.dtd"><svg t="1700728209254" class="icon" viewBox="0 0 1024 1024" version="1.1" xmlns="http://www.w3.org/2000/svg" p-id="43050" xmlns:xlink="http://www.w3.org/1999/xlink" width="32" height="32"><path d="M896 537.65v204.1c0 10.95-8.95 19.9-19.9 19.9H147.9c-10.95 0-19.9-8.95-19.9-19.9v-204.1h768z" fill="#616161" p-id="43051"></path><path d="M147.9 331.85h728.2c10.95 0 19.9 8.95 19.9 19.9v185.9H128V351.75c0-10.95 8.95-19.9 19.9-19.9z" fill="#BDBDBD" p-id="43052"></path><path d="M896 529.65v14.15H128V529.65zM304 633.65h416v80H304z" fill="#424242" p-id="43053"></path><path d="M320 649.65h384v176H320z" fill="#BDBDBD" p-id="43054"></path><path d="M186.45 469.95m-19.7 0a19.7 19.7 0 1 0 39.4 0 19.7 19.7 0 1 0-39.4 0Z" fill="#689F38" p-id="43055"></path><path d="M236.3 469.95m-19.7 0a19.7 19.7 0 1 0 39.4 0 19.7 19.7 0 1 0-39.4 0Z" fill="#0277BD" p-id="43056"></path><path d="M320 198.35h384v192H320z" fill="#757575" p-id="43057"></path><path d="M304 369.65h416v20.7H304z" fill="#424242" p-id="43058"></path></svg>