<?xml version="1.0" standalone="no"?><!DOCTYPE svg PUBLIC "-//W3C//DTD SVG 1.1//EN" "http://www.w3.org/Graphics/SVG/1.1/DTD/svg11.dtd"><svg t="1700730031861" class="icon" viewBox="0 0 1024 1024" version="1.1" xmlns="http://www.w3.org/2000/svg" p-id="20458" xmlns:xlink="http://www.w3.org/1999/xlink" width="32" height="32"><path d="M256 272h512v168.75H256z" fill="#558B2F" p-id="20459"></path><path d="M268.9 486.3h395.05v30.4H268.9zM732.3 524.3c-12.6 0-22.8-10.2-22.8-22.8 0-12.55 10.2-22.8 22.8-22.8 12.6 0 22.8 10.2 22.8 22.8 0 12.6-10.2 22.8-22.8 22.8z" fill="#424242" p-id="20460"></path><path d="M192.95 364.75h638.15c16.8 0 32 6.8 42.95 17.8 11 11 17.8 26.2 17.8 43v227.9c0 16.8-6.8 32-17.8 43s-26.2 17.8-43 17.8H192.95c-16.75 0-31.95-6.8-43-17.8-11-11-17.8-26.2-17.8-42.95V425.55c0-16.75 6.8-31.95 17.8-42.95 11-11 26.2-17.85 43-17.85z" fill="#7CB342" p-id="20461"></path><path d="M224 519.25h576V576H224z" fill="#01579B" p-id="20462"></path><path d="M306 176h411.95v188.75H306zM306 576h411.95v272H306z" fill="#FFE0B2" p-id="20463"></path><path d="M784.9 491.4m-15.1 0a15.1 15.1 0 1 0 30.2 0 15.1 15.1 0 1 0-30.2 0Z" fill="#E53935" p-id="20464"></path><path d="M746.6 491.4m-15.1 0a15.1 15.1 0 1 0 30.2 0 15.1 15.1 0 1 0-30.2 0Z" fill="#00695C" p-id="20465"></path><path d="M376 616h272v16H376z" fill="#E53935" p-id="20466"></path><path d="M376 672h272v112H376z" fill="#00796B" p-id="20467"></path></svg>