<?xml version="1.0" standalone="no"?><!DOCTYPE svg PUBLIC "-//W3C//DTD SVG 1.1//EN" "http://www.w3.org/Graphics/SVG/1.1/DTD/svg11.dtd"><svg t="1700730680649" class="icon" viewBox="0 0 1024 1024" version="1.1" xmlns="http://www.w3.org/2000/svg" p-id="59775" xmlns:xlink="http://www.w3.org/1999/xlink" width="32" height="32"><path d="M888.123077 805.415385l90.584615-90.584616c7.876923-7.876923 7.876923-19.692308 0-27.569231l-55.138461-55.138461c-7.876923-7.876923-19.692308-7.876923-27.569231 0L807.384615 724.676923l-84.676923-84.676923c-7.876923-7.876923-19.692308-7.876923-27.56923 0l-55.138462 55.138462c-7.876923 7.876923-7.876923 19.692308 0 27.56923l84.676923 84.676923-82.707692 82.707693c-7.876923 7.876923-7.876923 19.692308 0 27.56923l55.138461 55.138462c7.876923 7.876923 19.692308 7.876923 27.569231 0l82.707692-82.707692 88.615385 88.615384c7.876923 7.876923 19.692308 7.876923 27.569231 0l55.138461-55.138461c7.876923-7.876923 7.876923-19.692308 0-27.569231l-90.584615-90.584615zM94.523077 157.538462h212.676923l-80.738462 456.861538c-3.938462 19.692308 9.846154 35.446154 27.569231 35.446154H354.461538c13.784615 0 27.569231-9.846154 29.538462-23.630769L466.707692 157.538462h216.615385c13.784615 0 27.569231-9.846154 29.538461-25.6l9.846154-59.076924c3.938462-17.723077-9.846154-33.476923-29.538461-33.476923h-590.769231c-13.784615 0-25.6 9.846154-27.569231 25.6l-9.846154 59.076923c-3.938462 17.723077 9.846154 33.476923 29.538462 33.476924zM551.384615 758.153846c0-15.753846-13.784615-29.538462-29.538461-29.538461h-452.923077c-15.753846 0-29.538462 13.784615-29.538462 29.538461v59.076923c0 15.753846 13.784615 29.538462 29.538462 29.538462h452.923077c15.753846 0 29.538462-13.784615 29.538461-29.538462v-59.076923z" p-id="59776" fill="#1296db"></path></svg>