<?xml version="1.0" standalone="no"?><!DOCTYPE svg PUBLIC "-//W3C//DTD SVG 1.1//EN" "http://www.w3.org/Graphics/SVG/1.1/DTD/svg11.dtd"><svg t="1700730847106" class="icon" viewBox="0 0 1024 1024" version="1.1" xmlns="http://www.w3.org/2000/svg" p-id="65177" xmlns:xlink="http://www.w3.org/1999/xlink" width="32" height="32"><path d="M320 288C320 207.36 397.696 128 512 128c99.072 0 170.624 59.648 187.968 128h130.112C812.16 105.92 669.44 0 512 0 343.552 0 192 121.152 192 288c0 60.544 19.968 115.072 53.44 160H64v128h896V448H512C397.696 448 320 368.64 320 288zM704 736c0-10.752-1.408-21.504-4.032-32h130.112c1.28 10.432 1.92 21.12 1.92 32 0 166.848-151.552 288-320 288-157.44 0-300.16-105.92-318.08-256h130.112c17.28 68.352 88.896 128 187.968 128 114.304 0 192-79.36 192-160z" fill="#F04925" p-id="65178"></path></svg>