<?xml version="1.0" standalone="no"?><!DOCTYPE svg PUBLIC "-//W3C//DTD SVG 1.1//EN" "http://www.w3.org/Graphics/SVG/1.1/DTD/svg11.dtd"><svg t="1700729394306" class="icon" viewBox="0 0 1024 1024" version="1.1" xmlns="http://www.w3.org/2000/svg" p-id="5143" xmlns:xlink="http://www.w3.org/1999/xlink" width="32" height="32"><path d="M262.144 163.84l73.984-42.666667L763.306667 859.989333l-73.984 42.666667L262.144 163.84z m89.984 658.602667a109.44 109.44 0 0 1-150.4 0 106.538667 106.538667 0 0 1 0-150.186667l177.706667-177.408-42.666667-76.373333-195.242667 193.28a191.36 191.36 0 0 0 0 270.805333 191.957333 191.957333 0 0 0 271.232 0l121.344-121.130667-42.752-76.373333-139.221333 137.386667zM883.925333 141.226667a192.384 192.384 0 0 0-271.232 0L491.818667 262.4l42.666666 76.373333 137.6-137.386666a106.453333 106.453333 0 0 1 179.413334 75.690666 106.112 106.112 0 0 1-29.056 74.453334l-176.426667 177.450666 42.709333 76.373334 193.92-193.706667a191.786667 191.786667 0 0 0 0-270.805333l1.28 0.426666z" p-id="5144" fill="#d81e06"></path></svg>