<?xml version="1.0" standalone="no"?><!DOCTYPE svg PUBLIC "-//W3C//DTD SVG 1.1//EN" "http://www.w3.org/Graphics/SVG/1.1/DTD/svg11.dtd"><svg t="1700729450084" class="icon" viewBox="0 0 1186 1024" version="1.1" xmlns="http://www.w3.org/2000/svg" p-id="7888" xmlns:xlink="http://www.w3.org/1999/xlink" width="37.0625" height="32"><path d="M1088.669538 603.529846H432.758154A91.766154 91.766154 0 0 1 340.913231 512c0-50.569846 41.117538-91.608615 91.844923-91.608615h655.990154a91.766154 91.766154 0 1 1 0 183.21723z m0-366.513231H432.758154a91.766154 91.766154 0 0 1-91.844923-91.687384c0-50.569846 41.117538-91.608615 91.844923-91.608616h655.990154a91.687385 91.687385 0 1 1 0 183.296zM191.960615 915.140923l13.863385 69.710769 0.157538 2.756923a7.719385 7.719385 0 0 1-1.496615 4.962462 5.435077 5.435077 0 0 1-4.568615 2.048 13.075692 13.075692 0 0 1-6.065231-1.575385l-67.741539-32.216615-66.796307 33.792a14.966154 14.966154 0 0 1-5.986462 1.732923c-2.126769 0-3.702154-0.630154-4.726154-1.969231a7.561846 7.561846 0 0 1-1.575384-4.962461c0-0.630154 0-1.496615 0.236307-2.835693l11.972924-69.947077-55.217231-48.836923c-2.520615-2.441846-3.938462-4.568615-3.938462-6.616615 0-3.387077 2.835692-5.513846 8.428308-6.459077l74.988308-11.027692 32.846769-64.039385c1.811692-3.780923 4.253538-5.750154 7.246769-5.828923 2.993231 0 5.513846 1.890462 7.404308 5.671385l34.658461 63.094154 75.303385 9.294769c5.592615 0.787692 8.428308 2.914462 8.507077 6.301538 0 2.126769-1.260308 4.332308-3.859692 6.774154l-53.563077 50.176z m0-379.667692l13.863385 69.710769 0.157538 2.835692a7.719385 7.719385 0 0 1-1.496615 4.962462 5.513846 5.513846 0 0 1-4.568615 2.048 13.075692 13.075692 0 0 1-6.065231-1.575385l-67.584-32.216615-66.875077 33.792a13.154462 13.154462 0 0 1-5.986462 1.654154c-2.126769 0-3.702154-0.551385-4.726153-1.969231a7.404308 7.404308 0 0 1-1.575385-4.962462c0-0.472615 0-1.417846 0.236308-2.756923l11.972923-70.104615-55.296-48.679385C1.496615 485.691077 0.078769 483.485538 0.078769 481.595077c0-3.465846 2.835692-5.592615 8.428308-6.537846l74.988308-11.027693 32.846769-63.960615c1.811692-3.938462 4.253538-5.828923 7.246769-5.907692 2.993231-0.078769 5.513846 1.811692 7.404308 5.592615l34.658461 63.172923 75.303385 9.294769c5.592615 0.787692 8.428308 2.835692 8.507077 6.301539 0 2.126769-1.260308 4.332308-3.859692 6.774154l-53.563077 50.176z m0-366.592l13.863385 69.710769 0.157538 2.756923a7.876923 7.876923 0 0 1-1.496615 4.962462 5.356308 5.356308 0 0 1-4.568615 2.126769 13.075692 13.075692 0 0 1-6.065231-1.575385l-67.584-32.137846-66.875077 33.713231a14.966154 14.966154 0 0 1-5.986462 1.811692c-2.126769 0-3.702154-0.708923-4.726153-2.048a7.404308 7.404308 0 0 1-1.575385-4.962461c0-0.551385 0-1.417846 0.236308-2.756923l11.972923-70.025847-55.296-48.836923C1.496615 119.177846 0.078769 116.893538 0.078769 115.003077c0-3.465846 2.835692-5.592615 8.428308-6.459077l74.988308-11.106462 32.846769-63.960615C118.232615 29.538462 120.595692 27.648 123.588923 27.569231c2.993231 0 5.513846 1.811692 7.404308 5.592615l34.658461 63.172923 75.303385 9.294769c5.592615 0.787692 8.428308 2.835692 8.507077 6.301539 0 2.126769-1.260308 4.332308-3.859692 6.774154l-53.563077 50.176z m240.797539 631.020307h655.990154a91.766154 91.766154 0 0 1 0 183.296H432.758154a91.766154 91.766154 0 0 1-91.844923-91.608615c0-50.569846 41.117538-91.687385 91.844923-91.687385z" fill="#003C78" p-id="7889"></path></svg>